<?xml version="1.0" standalone="no"?>
<!DOCTYPE svg PUBLIC "-//W3C//DTD SVG 20010904//EN"
 "http://www.w3.org/TR/2001/REC-SVG-20010904/DTD/svg10.dtd">
<svg version="1.0" xmlns="http://www.w3.org/2000/svg"
 width="500.000000pt" height="500.000000pt" viewBox="0 0 500.000000 500.000000"
 preserveAspectRatio="xMidYMid meet">

<g transform="translate(0.000000,500.000000) scale(0.100000,-0.100000)"
fill="#000000" stroke="none">
<path d="M2793 3787 c-423 -422 -463 -465 -463 -495 0 -22 8 -41 25 -57 52
-53 45 -59 490 383 336 335 415 409 439 410 25 2 73 -42 387 -356 280 -280
359 -364 359 -383 0 -20 -88 -113 -400 -427 -220 -220 -405 -413 -410 -427
-23 -59 17 -111 77 -102 33 6 88 57 481 449 244 244 450 456 456 471 7 16 11
39 9 51 -3 14 -196 214 -467 485 -399 399 -465 461 -491 461 -25 0 -92 -62
-492 -463z"/>
<path d="M1776 4105 c-14 -13 -26 -33 -26 -44 0 -20 18 -91 77 -311 14 -52 29
-111 34 -130 38 -164 63 -237 85 -257 33 -30 69 -29 99 2 34 34 34 45 -15 220
-12 44 -35 130 -50 190 -78 304 -80 310 -106 333 -33 29 -65 28 -98 -3z"/>
<path d="M907 3236 c-32 -29 -36 -74 -9 -104 18 -21 49 -31 437 -131 110 -29
212 -57 226 -62 33 -13 70 1 92 35 23 34 21 50 -5 81 -24 26 -101 51 -448 140
-80 20 -156 41 -170 46 -66 22 -95 21 -123 -5z"/>
<path d="M1232 2228 c-249 -249 -460 -465 -468 -480 -13 -25 -13 -31 3 -55 25
-41 883 -902 916 -919 17 -9 40 -13 56 -9 33 7 915 886 930 928 13 35 0 70
-34 93 -22 14 -29 15 -58 3 -19 -8 -192 -172 -431 -411 -326 -325 -404 -398
-426 -398 -21 0 -91 65 -381 355 -293 294 -355 360 -357 386 -3 29 25 60 396
433 220 220 405 411 411 423 22 42 -26 103 -80 103 -17 0 -145 -122 -477 -452z"/>
<path d="M3366 2047 c-55 -56 -26 -108 77 -137 116 -33 135 -38 282 -76 77
-20 180 -47 229 -60 99 -28 136 -25 160 11 44 68 6 105 -149 146 -66 17 -203
54 -305 81 -246 66 -262 67 -294 35z"/>
<path d="M2972 1654 c-39 -27 -43 -55 -21 -141 11 -43 24 -92 30 -110 5 -17
23 -84 39 -148 16 -64 33 -131 39 -148 13 -42 37 -135 45 -169 15 -65 115 -77
140 -17 16 37 4 90 -104 484 -13 44 -28 106 -35 137 -15 69 -37 105 -71 118
-33 13 -36 13 -62 -6z"/>
</g>
</svg>
