<?xml version="1.0" standalone="no"?>
<!DOCTYPE svg PUBLIC "-//W3C//DTD SVG 20010904//EN"
 "http://www.w3.org/TR/2001/REC-SVG-20010904/DTD/svg10.dtd">
<svg version="1.0" xmlns="http://www.w3.org/2000/svg"
 width="500.000000pt" height="500.000000pt" viewBox="0 0 500.000000 500.000000"
 preserveAspectRatio="xMidYMid meet">

<g transform="translate(0.000000,500.000000) scale(0.100000,-0.100000)"
fill="#000000" stroke="none">
<path d="M2455 4635 c-25 -24 -25 -27 -25 -194 0 -93 3 -177 6 -186 4 -8 19
-22 35 -31 26 -13 32 -13 58 0 16 9 31 23 35 31 3 9 6 93 6 186 0 167 0 170
-25 194 -31 32 -59 32 -90 0z"/>
<path d="M1451 4457 c-14 -6 -29 -25 -34 -40 -8 -24 2 -47 90 -202 105 -186
123 -206 174 -185 39 17 52 59 30 102 -41 81 -174 308 -184 316 -23 18 -52 21
-76 9z"/>
<path d="M3483 4455 c-19 -13 -189 -300 -206 -348 -9 -25 11 -63 40 -76 48
-22 71 2 177 186 93 163 98 174 87 202 -7 15 -24 33 -37 40 -32 14 -35 14 -61
-4z"/>
<path d="M2340 3584 c-243 -29 -348 -49 -520 -99 -498 -145 -1021 -462 -1364
-826 -109 -115 -125 -144 -105 -191 18 -43 257 -283 379 -380 515 -408 1115
-648 1690 -674 635 -30 1404 274 1972 779 110 99 237 235 257 277 13 26 13 34
-1 63 -22 46 -193 223 -307 318 -464 389 -978 629 -1531 715 -93 15 -401 26
-470 18z m391 -165 c266 -67 504 -262 623 -512 70 -146 81 -203 81 -407 0
-204 -11 -261 -81 -407 -115 -241 -355 -442 -609 -509 -99 -27 -400 -27 -495
-1 -259 72 -499 279 -616 532 -54 118 -76 227 -76 385 0 262 77 457 252 644
127 135 293 235 455 275 118 29 350 29 466 0z m-991 -124 c0 -2 -36 -50 -80
-107 -221 -282 -298 -622 -215 -943 54 -206 127 -338 267 -479 54 -55 97 -101
95 -102 -6 -7 -142 37 -218 71 -350 153 -675 369 -948 631 -87 83 -111 112
-111 133 0 63 370 378 645 550 115 72 368 201 394 201 9 0 48 11 87 24 73 26
84 29 84 21z m1625 -25 c44 -12 136 -49 204 -82 288 -138 548 -322 801 -564
80 -77 100 -102 100 -125 0 -22 -22 -48 -117 -138 -232 -218 -472 -389 -748
-533 -88 -46 -178 -96 -200 -111 -45 -30 -144 -72 -220 -93 -57 -16 -69 -12
-28 10 97 50 252 245 329 414 62 135 104 320 104 452 0 177 -73 426 -167 572
-24 37 -113 153 -162 212 -18 22 -30 23 104 -14z"/>
<path d="M2385 2863 c-120 -43 -177 -94 -229 -203 -28 -58 -31 -75 -31 -160 0
-86 3 -102 31 -160 44 -92 84 -134 172 -177 72 -36 81 -38 172 -38 91 0 100 2
173 38 86 43 130 89 174 183 25 52 28 71 28 155 0 90 -2 99 -38 171 -43 88
-85 129 -176 171 -83 39 -198 47 -276 20z m208 -137 c40 -17 122 -101 136
-139 6 -16 11 -55 11 -87 0 -77 -12 -105 -68 -164 -58 -60 -94 -76 -172 -76
-78 0 -114 16 -172 76 -56 59 -68 87 -68 164 0 32 5 71 11 87 13 36 96 121
134 139 39 17 147 18 188 0z"/>
<path d="M1625 969 c-11 -6 -64 -89 -118 -184 -88 -154 -98 -178 -90 -202 5
-15 22 -34 36 -41 48 -23 74 0 150 133 124 215 127 222 116 254 -6 15 -21 33
-35 40 -29 13 -32 13 -59 0z"/>
<path d="M3314 968 c-27 -12 -46 -52 -37 -75 19 -53 189 -336 209 -350 32 -21
78 -3 94 38 12 27 7 39 -86 204 -81 142 -104 176 -128 185 -16 5 -29 10 -30 9
-1 0 -11 -5 -22 -11z"/>
<path d="M2475 778 c-42 -23 -45 -35 -45 -215 0 -171 0 -174 25 -198 31 -32
59 -32 90 0 25 24 25 27 25 194 0 93 -3 177 -6 186 -4 8 -19 22 -35 30 -33 18
-29 17 -54 3z"/>
</g>
</svg>
