<?xml version="1.0" standalone="no"?>
<!DOCTYPE svg PUBLIC "-//W3C//DTD SVG 20010904//EN"
 "http://www.w3.org/TR/2001/REC-SVG-20010904/DTD/svg10.dtd">
<svg version="1.0" xmlns="http://www.w3.org/2000/svg"
 width="800.000000pt" height="800.000000pt" viewBox="0 0 800.000000 800.000000"
 preserveAspectRatio="xMidYMid meet">

<g transform="translate(0.000000,800.000000) scale(0.100000,-0.100000)"
fill="#000000" stroke="none">
<path d="M3205 6040 c-86 -13 -165 -62 -214 -133 -47 -68 -61 -134 -61 -279
l0 -128 69 0 69 0 4 138 c3 132 4 141 31 180 15 23 45 51 67 62 39 20 54 20
1569 20 1059 0 1538 -3 1558 -11 38 -14 71 -46 94 -91 18 -36 19 -70 19 -840
0 -767 -1 -805 -19 -845 -12 -26 -35 -52 -62 -70 l-42 -28 -224 -3 -223 -3 0
-70 0 -70 238 3 c218 3 241 5 284 25 60 27 127 95 159 158 l24 50 0 855 0 855
-27 50 c-35 67 -90 118 -163 152 l-60 28 -1520 1 c-836 1 -1543 -2 -1570 -6z"/>
<path d="M1727 5369 c-108 -25 -200 -102 -250 -207 l-32 -67 0 -995 0 -995 32
-67 c17 -36 50 -85 73 -108 49 -49 142 -96 211 -105 l49 -7 0 -363 0 -363 29
-31 c23 -25 37 -31 69 -31 50 0 27 -20 510 433 l375 352 1326 5 1326 5 63 29
c80 37 161 122 194 203 l23 58 0 985 0 985 -23 57 c-27 68 -97 148 -159 185
-94 55 -13 53 -1968 52 -1011 -1 -1827 -5 -1848 -10z m3739 -136 c48 -25 101
-83 120 -129 12 -28 14 -203 14 -1004 0 -1071 4 -1009 -63 -1078 -18 -19 -50
-43 -72 -55 l-40 -22 -1342 -5 -1342 -5 -78 -75 c-113 -107 -218 -207 -383
-360 -79 -74 -190 -177 -245 -229 l-100 -94 -3 380 -2 380 -93 5 c-129 7 -200
48 -253 148 -18 33 -19 78 -19 1010 0 932 1 977 19 1010 39 74 105 126 176
141 19 4 852 6 1850 5 l1815 -1 41 -22z"/>
<path d="M4471 4714 c-78 -21 -181 -78 -229 -127 -53 -54 -105 -142 -134 -226
-20 -57 -23 -86 -23 -216 0 -131 3 -159 24 -223 70 -214 240 -348 467 -368 84
-8 184 8 266 41 l58 24 53 -36 c62 -42 161 -93 180 -93 14 0 47 60 47 85 0 7
-37 33 -81 57 -45 24 -84 49 -86 55 -3 7 8 30 24 50 96 124 129 235 127 423
-3 282 -154 492 -399 555 -74 19 -222 19 -294 -1z m309 -146 c76 -36 131 -86
168 -156 98 -183 77 -479 -42 -604 l-26 -28 -53 34 c-54 34 -127 66 -151 66
-16 0 -50 -90 -39 -101 5 -4 31 -16 58 -27 99 -39 62 -68 -85 -66 -102 1 -172
28 -244 94 -93 85 -130 187 -130 355 -1 242 79 380 257 446 77 29 212 22 287
-13z"/>
<path d="M2190 4140 l0 -571 73 3 72 3 5 255 5 255 265 5 265 5 3 54 c2 30 -1
58 -6 63 -6 6 -110 10 -243 9 -129 0 -246 3 -262 6 l-27 5 2 172 3 171 308 3
307 2 0 65 0 65 -385 0 -385 0 0 -570z"/>
<path d="M3377 4703 c-2 -5 -100 -257 -217 -561 -138 -360 -209 -557 -203
-563 6 -6 41 -9 79 -7 l68 3 60 165 c32 91 64 168 70 172 6 5 114 7 241 5
l229 -2 66 -170 66 -170 82 -3 c63 -2 82 0 82 10 0 8 -53 144 -119 303 -65
160 -167 410 -227 557 l-109 268 -82 0 c-45 0 -84 -3 -86 -7z m109 -203 c89
-236 162 -444 158 -451 -7 -12 -351 -11 -359 1 -3 5 21 80 53 167 33 87 69
190 81 228 13 39 24 76 27 83 7 22 26 9 40 -28z"/>
</g>
</svg>
