<?xml version="1.0" standalone="no"?>
<!DOCTYPE svg PUBLIC "-//W3C//DTD SVG 20010904//EN"
 "http://www.w3.org/TR/2001/REC-SVG-20010904/DTD/svg10.dtd">
<svg version="1.0" xmlns="http://www.w3.org/2000/svg"
 width="500.000000pt" height="500.000000pt" viewBox="0 0 500.000000 500.000000"
 preserveAspectRatio="xMidYMid meet">

<g transform="translate(0.000000,500.000000) scale(0.100000,-0.100000)"
fill="#000000" stroke="none">
<path d="M3020 4634 c-557 -100 -962 -542 -1009 -1102 -46 -537 275 -1045 779
-1235 36 -13 108 -35 160 -48 89 -23 113 -24 380 -24 234 0 297 3 350 17 l65
17 171 -170 c146 -145 175 -169 201 -169 17 0 41 9 54 19 24 19 24 19 26 281
l3 262 78 77 c240 233 372 544 372 874 0 521 -335 988 -826 1153 -153 51 -258
64 -504 63 -139 -1 -254 -7 -300 -15z m621 -154 c399 -81 705 -365 824 -765
22 -73 28 -117 32 -236 6 -161 -3 -237 -43 -364 -64 -199 -172 -359 -352 -516
l-52 -45 0 -177 c0 -97 -4 -178 -9 -181 -4 -3 -58 44 -119 105 l-111 111 -48
-5 c-26 -2 -82 -11 -124 -20 -176 -37 -507 -31 -677 12 -348 89 -637 357 -753
698 -105 305 -57 654 125 927 156 233 397 396 676 456 128 28 493 28 631 0z"/>
<path d="M3260 4046 c-145 -42 -239 -159 -248 -307 -4 -60 -2 -68 19 -83 48
-33 119 -5 119 48 0 78 61 163 136 192 119 45 251 -40 262 -170 7 -90 -50
-170 -147 -207 -108 -40 -121 -66 -121 -241 0 -157 8 -178 69 -178 64 0 75 22
80 157 l3 114 54 24 c74 33 117 68 153 124 116 180 48 419 -145 508 -65 29
-169 38 -234 19z"/>
<path d="M3325 2900 c-32 -13 -47 -36 -43 -71 7 -72 105 -92 133 -26 16 39 3
80 -31 96 -29 13 -32 13 -59 1z"/>
<path d="M805 3168 c-27 -5 -88 -27 -134 -49 -149 -72 -254 -201 -300 -369
-20 -72 -21 -97 -21 -800 0 -703 1 -728 21 -800 54 -196 182 -332 379 -401 61
-21 83 -23 375 -27 l310 -3 186 -185 c159 -157 191 -184 216 -184 17 0 41 9
54 19 23 19 24 25 26 176 2 86 5 160 8 166 4 5 183 9 443 9 490 0 524 4 652
67 99 48 194 142 244 241 62 122 66 156 66 543 0 334 -1 347 -20 364 -29 26
-79 24 -102 -4 -17 -21 -18 -47 -18 -336 0 -172 -5 -336 -10 -365 -28 -150
-131 -275 -273 -334 -50 -20 -69 -21 -575 -26 l-524 -5 -19 -24 c-16 -19 -19
-40 -19 -115 0 -51 -3 -96 -7 -100 -4 -4 -62 49 -130 116 l-123 123 -338 5
c-199 4 -349 10 -367 17 -142 50 -256 171 -294 313 -9 34 -11 231 -9 775 l3
730 32 67 c37 78 98 148 168 193 96 61 78 59 612 65 490 5 493 5 514 27 30 30
30 80 0 105 -22 17 -51 18 -500 17 -262 -1 -498 -5 -526 -11z"/>
<path d="M860 2503 c-34 -13 -50 -37 -50 -74 0 -72 -33 -69 685 -69 718 0 685
-3 685 69 0 26 -7 44 -21 57 -20 18 -47 19 -653 21 -347 1 -638 -1 -646 -4z"/>
<path d="M832 2014 c-16 -11 -22 -25 -22 -53 0 -76 -74 -71 962 -71 883 0 926
1 941 18 23 25 22 85 -1 105 -17 16 -97 17 -938 17 -816 0 -922 -2 -942 -16z"/>
<path d="M843 1548 c-29 -14 -43 -55 -31 -90 7 -20 20 -31 46 -38 25 -8 272
-10 770 -8 l734 3 19 24 c27 34 24 75 -7 100 -26 21 -33 21 -768 20 -501 0
-748 -4 -763 -11z"/>
<path d="M2617 1540 c-53 -42 -25 -123 43 -123 40 0 70 29 70 68 0 64 -62 95
-113 55z"/>
</g>
</svg>
