<?xml version="1.0" standalone="no"?>
<!DOCTYPE svg PUBLIC "-//W3C//DTD SVG 20010904//EN"
 "http://www.w3.org/TR/2001/REC-SVG-20010904/DTD/svg10.dtd">
<svg version="1.0" xmlns="http://www.w3.org/2000/svg"
 width="500.000000pt" height="500.000000pt" viewBox="0 0 500.000000 500.000000"
 preserveAspectRatio="xMidYMid meet">

<g transform="translate(0.000000,500.000000) scale(0.100000,-0.100000)"
fill="#000000" stroke="none">
<path d="M543 4270 c-18 -10 -44 -37 -58 -59 l-25 -41 0 -1542 0 -1543 25 -70
c54 -147 143 -238 282 -286 55 -19 98 -19 1733 -19 1635 0 1678 0 1733 19 130
45 234 148 276 273 21 62 21 67 21 1385 0 1297 0 1325 -20 1362 -34 67 -78 81
-261 81 -107 0 -159 4 -167 12 -8 8 -12 60 -12 167 0 183 -14 227 -81 261 -38
20 -67 20 -1726 20 -1659 0 -1689 0 -1720 -20z m3367 -1590 c4 -1081 8 -1452
17 -1471 21 -47 73 -97 116 -113 100 -36 167 -14 167 55 0 45 -15 66 -57 79
-21 7 -48 22 -60 33 l-23 20 0 1182 c0 905 3 1184 12 1193 15 15 274 17 283 3
3 -5 5 -583 5 -1284 0 -1447 7 -1330 -85 -1422 -93 -93 71 -85 -1785 -85
-1468 0 -1641 2 -1683 16 -60 20 -139 95 -169 159 l-23 50 -3 1495 c-1 822 0
1505 3 1518 l5 22 1638 -2 1637 -3 5 -1445z"/>
<path d="M1045 3715 c-16 -15 -25 -36 -25 -55 0 -19 9 -40 25 -55 l24 -25
1196 0 c824 0 1202 3 1216 11 48 25 43 115 -7 138 -18 8 -341 11 -1215 11
l-1190 0 -24 -25z"/>
<path d="M1064 3266 c-17 -8 -34 -21 -38 -31 -3 -9 -6 -239 -6 -511 l0 -495
25 -24 24 -25 499 0 c477 0 501 1 523 19 l24 19 0 506 0 505 -23 23 -23 23
-487 2 c-394 2 -493 0 -518 -11z m894 -532 c2 -306 0 -373 -12 -383 -9 -8
-118 -11 -387 -9 l-374 3 -3 370 c-1 203 0 376 3 383 3 10 86 12 387 10 l383
-3 3 -371z"/>
<path d="M2464 3266 c-73 -32 -54 -136 28 -151 18 -3 246 -5 505 -3 l472 3 23
22 c30 30 30 86 0 116 l-23 22 -487 2 c-394 2 -493 0 -518 -11z"/>
<path d="M2441 2784 c-28 -36 -27 -79 4 -109 l24 -25 495 0 495 0 27 24 c37
31 39 90 5 117 -22 18 -50 19 -526 19 l-504 0 -20 -26z"/>
<path d="M2445 2325 c-31 -30 -32 -73 -4 -109 l20 -26 504 0 c476 0 504 1 526
19 34 27 32 86 -5 117 l-27 24 -495 0 -495 0 -24 -25z"/>
<path d="M1080 1883 c-86 -32 -77 -142 12 -158 18 -3 246 -5 505 -3 l472 3 23
22 c30 30 30 86 0 116 l-23 22 -487 2 c-268 1 -494 -1 -502 -4z"/>
<path d="M2471 1879 c-34 -13 -50 -39 -51 -76 0 -40 27 -70 72 -78 18 -3 246
-5 505 -3 l472 3 23 22 c30 30 30 86 0 116 l-23 22 -487 2 c-301 1 -496 -2
-511 -8z"/>
<path d="M1045 1395 c-16 -15 -25 -36 -25 -55 0 -19 9 -40 25 -55 l24 -25 490
0 c345 0 497 3 515 11 29 14 46 54 39 93 -11 57 -3 56 -546 56 l-498 0 -24
-25z"/>
<path d="M2445 1395 c-16 -15 -25 -36 -25 -55 0 -19 9 -40 25 -55 l24 -25 490
0 c347 0 497 3 515 11 50 23 55 113 7 138 -13 7 -185 11 -516 11 l-496 0 -24
-25z"/>
</g>
</svg>
