<?xml version="1.0" standalone="no"?>
<!DOCTYPE svg PUBLIC "-//W3C//DTD SVG 20010904//EN"
 "http://www.w3.org/TR/2001/REC-SVG-20010904/DTD/svg10.dtd">
<svg version="1.0" xmlns="http://www.w3.org/2000/svg"
 width="500.000000pt" height="500.000000pt" viewBox="0 0 500.000000 500.000000"
 preserveAspectRatio="xMidYMid meet">

<g transform="translate(0.000000,500.000000) scale(0.100000,-0.100000)"
fill="#000000" stroke="none">
<path d="M1069 4693 c-80 -41 -112 -92 -119 -191 l-5 -77 -135 -6 c-105 -4
-147 -10 -191 -27 -160 -63 -281 -200 -324 -367 -22 -88 -23 -3246 0 -3343 45
-189 198 -342 386 -387 96 -22 3541 -22 3637 0 192 45 343 197 387 390 13 56
15 273 13 1697 l-3 1633 -23 59 c-57 152 -171 265 -326 324 -26 9 -91 17 -176
21 l-135 6 -5 77 c-7 99 -39 150 -119 191 -93 46 -178 32 -252 -42 -52 -51
-69 -96 -69 -178 l0 -53 -219 0 -218 0 -6 69 c-9 113 -66 193 -156 220 -155
46 -291 -68 -291 -243 l0 -46 -220 0 -220 0 0 46 c0 74 -19 130 -61 178 -79
90 -211 100 -304 24 -50 -41 -75 -97 -82 -179 l-6 -69 -218 0 -219 0 0 53 c0
82 -17 127 -69 178 -74 74 -159 88 -252 42z m148 -145 c22 -21 23 -26 23 -197
0 -166 -1 -176 -22 -198 -26 -28 -67 -30 -99 -4 -24 19 -24 22 -24 201 0 179
0 182 24 201 31 25 69 24 98 -3z m892 -4 c19 -25 21 -40 21 -194 0 -154 -2
-169 -21 -194 -27 -34 -71 -35 -104 -1 -25 24 -25 27 -25 195 0 168 0 171 25
195 33 34 77 33 104 -1z m886 1 c25 -24 25 -27 25 -195 0 -168 0 -171 -25
-195 -30 -31 -71 -32 -102 -3 -22 21 -23 27 -23 193 0 159 2 174 21 199 27 34
71 35 104 1z m886 6 c24 -19 24 -22 24 -201 0 -179 0 -182 -24 -201 -31 -25
-69 -24 -98 3 -22 21 -23 26 -23 197 0 166 1 176 22 198 26 28 67 30 99 4z
m-2931 -353 c7 -99 39 -150 119 -190 96 -49 190 -31 263 50 42 46 58 94 58
170 l0 52 219 0 218 0 6 -69 c7 -82 32 -138 82 -179 92 -75 209 -69 295 17 50
50 70 102 70 185 l0 46 220 0 220 0 0 -46 c0 -81 19 -134 69 -185 83 -86 204
-92 296 -17 50 41 75 97 82 179 l6 69 218 0 219 0 0 -52 c0 -76 16 -124 58
-170 73 -81 167 -99 263 -50 80 40 112 91 119 190 l5 77 73 3 c144 6 254 -32
335 -113 69 -71 99 -140 105 -247 l5 -88 -2073 0 -2072 0 4 88 c5 107 33 174
105 247 81 82 175 114 323 112 l85 -2 5 -77z m3618 -2005 l-3 -1488 -27 -57
c-37 -79 -98 -142 -177 -181 l-66 -32 -1795 0 -1795 0 -66 32 c-79 39 -140
102 -177 181 l-27 57 -3 1488 -2 1487 2070 0 2070 0 -2 -1487z"/>
<path d="M2416 3445 c-77 -27 -105 -69 -272 -415 -87 -179 -161 -328 -166
-331 -5 -3 -91 -18 -191 -32 -506 -73 -531 -77 -575 -103 -112 -66 -150 -218
-82 -329 10 -16 134 -144 275 -284 l256 -254 -62 -376 c-55 -331 -61 -381 -51
-417 16 -57 50 -103 101 -139 39 -27 50 -30 124 -30 l82 0 323 173 322 172
323 -172 322 -173 82 0 c74 0 85 3 124 30 51 36 85 82 101 139 10 36 4 86 -51
416 l-62 375 256 255 c141 140 265 269 276 286 47 76 42 189 -11 263 -58 79
-77 85 -478 144 -199 29 -363 55 -365 58 -2 2 -75 150 -161 329 -130 269 -164
332 -200 367 -63 61 -153 79 -240 48z m141 -157 c12 -13 94 -174 183 -358 88
-184 169 -343 179 -353 17 -17 96 -31 670 -114 138 -20 166 -37 166 -102 0
-41 -4 -45 -279 -320 -153 -153 -282 -285 -287 -293 -5 -9 18 -167 56 -394 36
-208 65 -389 65 -401 0 -12 -11 -34 -24 -49 -43 -50 -60 -44 -431 154 -188
100 -347 182 -354 182 -7 0 -138 -66 -290 -147 -437 -232 -422 -225 -450 -218
-34 8 -71 50 -71 80 0 14 27 183 60 377 34 194 61 368 62 386 1 31 -21 55
-285 321 -259 259 -287 290 -287 320 0 34 45 91 72 91 14 0 128 16 517 74 181
27 238 39 252 53 9 10 90 169 179 353 89 184 171 345 183 358 14 15 32 22 57
22 25 0 43 -7 57 -22z"/>
</g>
</svg>
