<?xml version="1.0" standalone="no"?>
<!DOCTYPE svg PUBLIC "-//W3C//DTD SVG 20010904//EN"
 "http://www.w3.org/TR/2001/REC-SVG-20010904/DTD/svg10.dtd">
<svg version="1.0" xmlns="http://www.w3.org/2000/svg"
 width="500.000000pt" height="500.000000pt" viewBox="0 0 500.000000 500.000000"
 preserveAspectRatio="xMidYMid meet">

<g transform="translate(0.000000,500.000000) scale(0.100000,-0.100000)"
fill="#000000" stroke="none">
<path d="M2350 4686 c-213 -64 -351 -203 -406 -409 -11 -43 -14 -346 -14
-1779 l0 -1727 25 -79 c23 -71 75 -165 122 -217 95 -105 277 -185 423 -185 36
0 98 9 138 20 204 57 347 191 407 382 l25 79 0 1727 c0 1866 3 1764 -53 1886
-113 245 -409 380 -667 302z m273 -156 c72 -22 164 -86 210 -145 16 -20 40
-61 55 -93 l27 -57 0 -1741 0 -1740 -38 -76 c-104 -210 -350 -299 -555 -201
-75 36 -170 131 -207 208 l-30 60 0 1745 0 1745 27 57 c94 202 307 301 511
238z"/>
<path d="M1035 3280 c-65 -14 -157 -51 -210 -85 -113 -72 -217 -223 -244 -353
-8 -36 -11 -367 -11 -1055 0 -1104 -3 -1051 63 -1186 40 -83 149 -194 232
-238 155 -81 315 -93 472 -35 141 52 242 138 307 261 75 143 71 78 71 1201 0
934 -1 1010 -18 1070 -69 251 -274 415 -531 425 -50 2 -109 0 -131 -5z m278
-188 c84 -38 173 -125 211 -205 14 -31 30 -86 36 -124 13 -95 13 -1877 -1
-1963 -5 -36 -21 -89 -34 -118 -32 -70 -133 -169 -210 -207 -55 -27 -69 -30
-170 -30 -103 0 -114 2 -178 32 -89 42 -168 121 -210 210 l-32 68 0 1030 0
1030 32 66 c34 68 101 144 165 186 107 71 267 81 391 25z"/>
<path d="M3716 1844 c-192 -46 -347 -194 -409 -389 -21 -66 -22 -87 -22 -380
0 -307 1 -311 26 -387 67 -195 217 -332 420 -382 129 -32 274 -11 404 57 130
68 245 219 280 369 18 78 21 596 4 680 -19 94 -82 210 -153 281 -71 72 -187
136 -284 156 -71 15 -194 12 -266 -5z m297 -164 c67 -25 171 -116 210 -183 53
-91 58 -131 55 -444 l-3 -288 -32 -68 c-62 -131 -180 -223 -321 -249 -215 -40
-440 122 -481 346 -14 77 -14 485 0 562 30 161 162 305 316 344 60 15 191 5
256 -20z"/>
</g>
</svg>
