<?xml version="1.0" standalone="no"?>
<!DOCTYPE svg PUBLIC "-//W3C//DTD SVG 20010904//EN"
 "http://www.w3.org/TR/2001/REC-SVG-20010904/DTD/svg10.dtd">
<svg version="1.0" xmlns="http://www.w3.org/2000/svg"
 width="500.000000pt" height="500.000000pt" viewBox="0 0 500.000000 500.000000"
 preserveAspectRatio="xMidYMid meet">

<g transform="translate(0.000000,500.000000) scale(0.100000,-0.100000)"
fill="#000000" stroke="none">
<path d="M1501 4650 c-173 -37 -333 -131 -420 -247 -48 -64 -103 -173 -121
-243 -6 -25 -21 -55 -33 -67 -20 -23 -25 -23 -257 -23 -260 0 -292 -5 -316
-52 -20 -38 -4 -90 32 -107 16 -7 106 -11 268 -11 l242 0 26 -27 c13 -16 37
-64 52 -108 75 -218 231 -364 466 -436 222 -68 501 13 667 195 62 68 114 159
143 251 13 39 34 82 48 98 l26 27 1132 0 c826 0 1140 3 1158 11 33 16 48 60
34 100 -21 62 33 59 -1206 59 l-1129 0 -20 23 c-11 12 -28 49 -38 82 -63 222
-224 381 -460 455 -79 24 -225 34 -294 20z m210 -170 c142 -26 297 -149 360
-284 62 -133 62 -304 -2 -434 -57 -117 -188 -231 -306 -267 -73 -22 -236 -20
-316 5 -74 23 -162 83 -225 155 -162 185 -158 483 10 661 71 75 131 117 203
142 94 33 180 40 276 22z"/>
<path d="M3270 3166 c-263 -56 -451 -224 -526 -471 -10 -33 -27 -70 -38 -82
l-19 -23 -1121 0 c-761 0 -1133 -4 -1159 -11 -48 -13 -73 -60 -57 -106 22 -62
-52 -58 1196 -61 l1141 -2 20 -23 c10 -12 27 -49 37 -82 82 -270 307 -451 601
-481 173 -18 410 77 537 215 57 62 124 180 153 271 33 103 23 100 292 100 189
0 240 3 272 16 47 19 66 57 50 103 -19 53 -59 61 -322 61 -269 0 -259 -3 -292
100 -74 232 -239 394 -470 461 -92 26 -212 32 -295 15z m233 -171 c92 -19 160
-58 238 -135 114 -113 149 -197 149 -362 0 -116 -20 -190 -75 -272 -145 -219
-418 -295 -651 -181 -83 41 -196 151 -232 228 -69 146 -69 308 0 454 32 68
145 184 218 222 106 57 228 73 353 46z"/>
<path d="M2408 1690 c-270 -49 -471 -219 -549 -465 -12 -38 -34 -82 -47 -97
l-26 -28 -687 0 c-496 0 -695 -3 -713 -11 -61 -28 -51 -125 15 -148 22 -8 241
-11 714 -11 l682 0 20 -23 c11 -12 28 -49 38 -82 36 -128 123 -259 217 -330
229 -172 493 -199 738 -75 164 83 270 209 330 395 13 39 32 80 43 93 l20 22
682 0 c483 0 692 3 715 11 40 14 65 65 51 103 -23 58 8 56 -746 56 l-691 0
-26 28 c-14 15 -36 59 -48 97 -56 175 -172 311 -332 389 -143 70 -285 97 -400
76z m227 -182 c118 -25 266 -148 323 -269 42 -88 57 -192 42 -296 -15 -114
-55 -190 -144 -279 -116 -116 -238 -162 -397 -151 -135 11 -228 57 -332 165
-107 113 -152 257 -129 415 17 117 57 194 145 281 137 137 289 179 492 134z"/>
</g>
</svg>
